<svg width="45" height="45" viewBox="0 0 45 45" fill="none" xmlns="http://www.w3.org/2000/svg">
<path d="M30.7002 22.5762C30.7002 23.0029 30.5425 23.3555 30.1992 23.6895L20.9033 32.6885C20.6343 32.9575 20.3003 33.0967 19.9199 33.0967C19.1313 33.0967 18.5098 32.4751 18.5098 31.6958C18.5098 31.2969 18.6675 30.9536 18.9458 30.6753L27.3511 22.5669L18.9458 14.4678C18.6675 14.1987 18.5098 13.8369 18.5098 13.4565C18.5098 12.6772 19.1313 12.0557 19.9199 12.0557C20.3096 12.0557 20.6343 12.1855 20.9033 12.4546L30.1992 21.4629C30.5425 21.7969 30.7002 22.1401 30.7002 22.5762Z" fill="#1A73E8"/>
</svg>
