<svg width="25" height="25" viewBox="0 0 25 25" fill="none" xmlns="http://www.w3.org/2000/svg">
<path d="M9.3856 13.2571C13.6294 13.2571 17.3142 14.768 17.3142 18.0939C17.3142 19.8222 16.6447 20.5429 15.2091 20.5429H3.56207C2.12655 20.5429 1.45703 19.8222 1.45703 18.0939C1.45703 14.768 5.14182 13.2571 9.3856 13.2571ZM9.3856 14.9714C6.00334 14.9714 3.17132 16.1326 3.17132 18.0939C3.17132 18.8576 3.11005 18.8341 3.49029 18.8291L15.2091 18.8286C15.6686 18.8286 15.5999 18.9025 15.5999 18.0939C15.5999 16.1326 12.7679 14.9714 9.3856 14.9714ZM19.7081 6.65104C20.0428 6.31631 20.5855 6.31631 20.9203 6.65104L24.3488 10.0796C24.6836 10.4144 24.6836 10.9571 24.3488 11.2918L20.9203 14.7204C20.5855 15.0551 20.0428 15.0551 19.7081 14.7204C19.3733 14.3856 19.3733 13.8429 19.7081 13.5082L21.6727 11.5428H16.457C16.0175 11.5428 15.6552 11.212 15.6057 10.7857L15.5999 10.6857C15.5999 10.2123 15.9836 9.82856 16.457 9.82856H21.6727L19.7081 7.86323C19.3991 7.55424 19.3753 7.06804 19.6368 6.73179L19.7081 6.65104ZM9.17132 2.97142C11.7758 2.97142 13.8856 5.08125 13.8856 7.68571C13.8856 10.2902 11.7758 12.4 9.17132 12.4C6.56686 12.4 4.45703 10.2902 4.45703 7.68571C4.45703 5.08125 6.56686 2.97142 9.17132 2.97142ZM9.17132 4.68571C7.51363 4.68571 6.17132 6.02802 6.17132 7.68571C6.17132 9.34339 7.51363 10.6857 9.17132 10.6857C10.829 10.6857 12.1713 9.34339 12.1713 7.68571C12.1713 6.02802 10.829 4.68571 9.17132 4.68571Z" fill="#1A73E8"/>
</svg>
