<svg width="24" height="24" viewBox="0 0 24 24" fill="none" xmlns="http://www.w3.org/2000/svg">
<path fill-rule="evenodd" clip-rule="evenodd" d="M6.75 19.101V5.01762H18.75V19.101C18.75 19.4808 18.8102 19.8454 18.9207 20.1843H7.75C7.19772 20.1843 6.75 19.6993 6.75 19.101ZM21.75 22.351H7.75C6.09315 22.351 4.75 20.8959 4.75 19.101V2.85095H18.75H19.75H20.75V8.26762H24.75V9.35095V10.4343V19.101C24.75 20.8959 23.4069 22.351 21.75 22.351ZM20.75 10.4343H22.75V19.101C22.75 19.6993 22.3023 20.1843 21.75 20.1843C21.1977 20.1843 20.75 19.6993 20.75 19.101V10.4343ZM12.75 7.18429V11.5176H8.75V7.18429H12.75ZM16.75 10.4343V8.26762H13.75V10.4343H16.75ZM16.75 12.601V14.7676H8.75V12.601H16.75ZM16.75 18.0176V15.851H8.75V18.0176H16.75Z" fill="#1A73E8"/>
</svg>
