<svg width="25" height="25" viewBox="0 0 25 25" fill="none" xmlns="http://www.w3.org/2000/svg">
<g clip-path="url(#clip0_176_1463)">
<path d="M14.1976 10.0162C13.5925 10.0162 13.1236 10.4851 13.1236 11.064C13.1236 11.6429 13.5925 12.1118 14.1976 12.1118C14.7503 12.1118 15.2192 11.6429 15.2192 11.064C15.2192 10.4851 14.7503 10.0162 14.1976 10.0162ZM6.86305 10.0162C6.25795 10.0162 5.78906 10.4851 5.78906 11.064C5.78906 11.6429 6.25795 12.1118 6.86305 12.1118C7.41576 12.1118 7.88465 11.6429 7.88465 11.064C7.88465 10.4851 7.41576 10.0162 6.86305 10.0162Z" fill="#1A73E8"/>
<path d="M14.1976 10.0162C13.5925 10.0162 13.1236 10.4851 13.1236 11.064C13.1236 11.6429 13.5925 12.1118 14.1976 12.1118C14.7503 12.1118 15.2192 11.6429 15.2192 11.064C15.2192 10.4851 14.7503 10.0162 14.1976 10.0162ZM6.86305 10.0162C6.25795 10.0162 5.78906 10.4851 5.78906 11.064C5.78906 11.6429 6.25795 12.1118 6.86305 12.1118C7.41576 12.1118 7.88465 11.6429 7.88465 11.064C7.88465 10.4851 7.41576 10.0162 6.86305 10.0162Z" fill="#1A73E8"/>
<path d="M22.6071 8.02545C21.3471 6.29659 19.5868 5.14139 17.6563 4.62012V4.62273C17.2083 4.12503 16.7028 3.66662 16.137 3.25798C11.8489 0.140796 5.8293 1.09167 2.69901 5.37977C0.176448 8.86368 0.283848 13.5499 2.85618 16.8793L2.87714 20.3527C2.87714 20.4366 2.89024 20.5204 2.91643 20.599C3.05526 21.0417 3.52677 21.2853 3.96684 21.1464L7.28311 20.1013C8.16064 20.413 9.06698 20.5911 9.96808 20.6409L9.95499 20.6514C12.2889 22.3514 15.3485 22.8622 18.154 21.9349L21.4833 23.0194C21.5672 23.0456 21.6536 23.0613 21.7427 23.0613C22.2063 23.0613 22.5809 22.6867 22.5809 22.2231V18.7129C24.8887 15.58 24.9489 11.25 22.6071 8.02545ZM7.64984 18.2414L7.3355 18.1105L4.74221 18.9225L4.71602 16.1982L4.50646 15.9625C2.29037 13.2592 2.14368 9.364 4.21831 6.50614C6.7435 3.04319 11.5843 2.2783 15.0368 4.77728C18.4997 7.29461 19.2673 12.1276 16.7656 15.5696C14.6674 18.4484 10.9111 19.5119 7.64984 18.2414ZM20.8782 17.7961L20.6687 18.0581L20.6949 20.7823L18.1278 19.9179L17.8134 20.0489C16.3465 20.5937 14.7827 20.6383 13.3341 20.2322L13.3289 20.2296C15.2647 19.635 17.0197 18.43 18.2849 16.6959C20.2862 13.9376 20.6111 10.472 19.448 7.51727L19.4637 7.52774C20.0662 7.95996 20.6189 8.49957 21.0878 9.15182C22.9895 11.7608 22.8821 15.3129 20.8782 17.7961Z" fill="#1A73E8"/>
<path d="M22.6071 8.02544C21.3471 6.29659 19.5868 5.14139 17.6563 4.62012V4.62273C17.2083 4.12503 16.7028 3.66662 16.137 3.25798C11.8489 0.140796 5.8293 1.09167 2.69901 5.37977C0.176448 8.86368 0.283848 13.5499 2.85618 16.8793L2.87714 20.3527C2.87714 20.4366 2.89024 20.5204 2.91643 20.599C3.05526 21.0417 3.52677 21.2853 3.96684 21.1464L7.28311 20.1013C8.16064 20.413 9.06698 20.5911 9.96808 20.6409L9.95499 20.6514C12.2889 22.3514 15.3485 22.8622 18.154 21.9349L21.4833 23.0194C21.5672 23.0456 21.6536 23.0613 21.7427 23.0613C22.2063 23.0613 22.5809 22.6867 22.5809 22.2231V18.7129C24.8887 15.58 24.9489 11.25 22.6071 8.02544ZM7.64984 18.2414L7.3355 18.1105L4.74221 18.9225L4.71602 16.1982L4.50646 15.9625C2.29037 13.2592 2.14368 9.364 4.21831 6.50614C6.7435 3.04319 11.5843 2.2783 15.0368 4.77728C18.4997 7.29461 19.2673 12.1276 16.7656 15.5696C14.6674 18.4484 10.9111 19.5119 7.64984 18.2414ZM20.8782 17.7961L20.6687 18.0581L20.6949 20.7823L18.1278 19.9179L17.8134 20.0489C16.3465 20.5937 14.7827 20.6383 13.3341 20.2322L13.3289 20.2296C15.2647 19.635 17.0197 18.43 18.2849 16.6959C20.2862 13.9376 20.6111 10.472 19.448 7.51727L19.4637 7.52774C20.0662 7.95996 20.6189 8.49957 21.0878 9.15182C22.9895 11.7608 22.8821 15.3129 20.8782 17.7961Z" fill="#1A73E8"/>
<path d="M10.531 10.0162C9.92592 10.0162 9.45703 10.4851 9.45703 11.064C9.45703 11.6429 9.92592 12.1118 10.531 12.1118C11.0837 12.1118 11.5526 11.6429 11.5526 11.064C11.5526 10.4851 11.0837 10.0162 10.531 10.0162Z" fill="#1A73E8"/>
<path d="M10.5318 10.0162C9.92665 10.0162 9.45776 10.4851 9.45776 11.064C9.45776 11.6429 9.92665 12.1118 10.5318 12.1118C11.0845 12.1118 11.5533 11.6429 11.5533 11.064C11.5533 10.4851 11.0845 10.0162 10.5318 10.0162Z" fill="#1A73E8"/>
</g>
<defs>
<clipPath id="clip0_176_1463">
<rect width="24" height="24" fill="white" transform="translate(0.600098 0.399994)"/>
</clipPath>
</defs>
</svg>
