<svg width="25" height="25" viewBox="0 0 25 25" fill="none" xmlns="http://www.w3.org/2000/svg">
<path d="M15.6771 2.97144C17.5482 2.97144 18.448 3.14519 19.3829 3.64517C20.2307 4.09857 20.9012 4.76904 21.3546 5.61682C21.8545 6.5517 22.0283 7.45147 22.0283 9.32262V15.4774C22.0283 17.3485 21.8545 18.2483 21.3546 19.1832C20.9012 20.031 20.2307 20.7014 19.3829 21.1548C18.448 21.6548 17.5482 21.8286 15.6771 21.8286H9.52232C7.65118 21.8286 6.75141 21.6548 5.81653 21.1548C4.96875 20.7014 4.29827 20.031 3.84487 19.1832C3.3449 18.2483 3.17114 17.3485 3.17114 15.4774V9.32262C3.17114 7.45147 3.3449 6.5517 3.84487 5.61682C4.29827 4.76904 4.96875 4.09857 5.81653 3.64517C6.75141 3.14519 7.65118 2.97144 9.52232 2.97144H15.6771ZM15.6771 4.68572H9.52232C7.90997 4.68572 7.27756 4.80785 6.62499 5.15685C6.07595 5.45047 5.65018 5.87624 5.35655 6.42528C5.00755 7.07785 4.88543 7.71027 4.88543 9.32262V15.4774C4.88543 17.0897 5.00755 17.7222 5.35655 18.3747C5.65018 18.9238 6.07595 19.3495 6.62499 19.6432C7.27756 19.9922 7.90997 20.1143 9.52232 20.1143H15.6771C17.2895 20.1143 17.9219 19.9922 18.5744 19.6432C19.1235 19.3495 19.5492 18.9238 19.8429 18.3747C20.1919 17.7222 20.314 17.0897 20.314 15.4774V9.32262C20.314 7.71027 20.1919 7.07785 19.8429 6.42528C19.5492 5.87624 19.1235 5.45047 18.5744 5.15685C17.9219 4.80785 17.2895 4.68572 15.6771 4.68572ZM11.7426 15.4C12.216 15.4 12.5997 15.7838 12.5997 16.2571C12.5997 16.7305 12.216 17.1143 11.7426 17.1143H8.314C7.84061 17.1143 7.45686 16.7305 7.45686 16.2571C7.45686 15.7838 7.84061 15.4 8.314 15.4H11.7426ZM16.8854 11.5429C17.3588 11.5429 17.7426 11.9266 17.7426 12.4C17.7426 12.8734 17.3588 13.2571 16.8854 13.2571H8.314C7.84061 13.2571 7.45686 12.8734 7.45686 12.4C7.45686 11.9266 7.84061 11.5429 8.314 11.5429H16.8854ZM16.8854 7.68572C17.3588 7.68572 17.7426 8.06948 17.7426 8.54286C17.7426 9.01625 17.3588 9.40001 16.8854 9.40001H8.314C7.84061 9.40001 7.45686 9.01625 7.45686 8.54286C7.45686 8.06948 7.84061 7.68572 8.314 7.68572H16.8854Z" fill="#1A73E8"/>
<path d="M15.6771 2.97144C17.5482 2.97144 18.448 3.14519 19.3829 3.64517C20.2307 4.09857 20.9012 4.76904 21.3546 5.61682C21.8545 6.5517 22.0283 7.45147 22.0283 9.32262V15.4774C22.0283 17.3485 21.8545 18.2483 21.3546 19.1832C20.9012 20.031 20.2307 20.7014 19.3829 21.1548C18.448 21.6548 17.5482 21.8286 15.6771 21.8286H9.52232C7.65118 21.8286 6.75141 21.6548 5.81653 21.1548C4.96875 20.7014 4.29827 20.031 3.84487 19.1832C3.3449 18.2483 3.17114 17.3485 3.17114 15.4774V9.32262C3.17114 7.45147 3.3449 6.5517 3.84487 5.61682C4.29827 4.76904 4.96875 4.09857 5.81653 3.64517C6.75141 3.14519 7.65118 2.97144 9.52232 2.97144H15.6771ZM15.6771 4.68572H9.52232C7.90997 4.68572 7.27756 4.80785 6.62499 5.15685C6.07595 5.45047 5.65018 5.87624 5.35655 6.42528C5.00755 7.07785 4.88543 7.71027 4.88543 9.32262V15.4774C4.88543 17.0897 5.00755 17.7222 5.35655 18.3747C5.65018 18.9238 6.07595 19.3495 6.62499 19.6432C7.27756 19.9922 7.90997 20.1143 9.52232 20.1143H15.6771C17.2895 20.1143 17.9219 19.9922 18.5744 19.6432C19.1235 19.3495 19.5492 18.9238 19.8429 18.3747C20.1919 17.7222 20.314 17.0897 20.314 15.4774V9.32262C20.314 7.71027 20.1919 7.07785 19.8429 6.42528C19.5492 5.87624 19.1235 5.45047 18.5744 5.15685C17.9219 4.80785 17.2895 4.68572 15.6771 4.68572ZM11.7426 15.4C12.216 15.4 12.5997 15.7838 12.5997 16.2571C12.5997 16.7305 12.216 17.1143 11.7426 17.1143H8.314C7.84061 17.1143 7.45686 16.7305 7.45686 16.2571C7.45686 15.7838 7.84061 15.4 8.314 15.4H11.7426ZM16.8854 11.5429C17.3588 11.5429 17.7426 11.9266 17.7426 12.4C17.7426 12.8734 17.3588 13.2571 16.8854 13.2571H8.314C7.84061 13.2571 7.45686 12.8734 7.45686 12.4C7.45686 11.9266 7.84061 11.5429 8.314 11.5429H16.8854ZM16.8854 7.68572C17.3588 7.68572 17.7426 8.06948 17.7426 8.54286C17.7426 9.01625 17.3588 9.40001 16.8854 9.40001H8.314C7.84061 9.40001 7.45686 9.01625 7.45686 8.54286C7.45686 8.06948 7.84061 7.68572 8.314 7.68572H16.8854Z" fill="#1A73E8"/>
</svg>
