<svg width="25" height="25" viewBox="0 0 25 25" fill="none" xmlns="http://www.w3.org/2000/svg">
<path d="M12.5997 1.91431C18.2803 1.91431 22.8854 6.51938 22.8854 12.2C22.8854 17.8807 18.2803 22.4857 12.5997 22.4857C6.91904 22.4857 2.31396 17.8807 2.31396 12.2C2.31396 6.51938 6.91904 1.91431 12.5997 1.91431ZM12.5997 17.7715C10.8117 17.7715 9.10257 18.2703 7.631 19.1849C9.0324 20.1839 10.7474 20.7715 12.5997 20.7715C14.4516 20.7715 16.1663 20.1842 17.5677 19.1857C16.0964 18.2702 14.3874 17.7715 12.5997 17.7715ZM12.5997 3.62859C7.86581 3.62859 4.02825 7.46615 4.02825 12.2C4.02825 14.442 4.88904 16.483 6.29816 18.0104C8.13021 16.7499 10.312 16.0572 12.5997 16.0572C14.8876 16.0572 17.0696 16.75 18.902 18.0092C20.3106 16.4822 21.1711 14.4416 21.1711 12.2C21.1711 7.46615 17.3335 3.62859 12.5997 3.62859ZM12.5997 6.62859C14.849 6.62859 16.6711 8.45074 16.6711 10.7C16.6711 12.9493 14.849 14.7715 12.5997 14.7715C10.3504 14.7715 8.52825 12.9493 8.52825 10.7C8.52825 8.45074 10.3504 6.62859 12.5997 6.62859ZM12.5997 8.34288C11.2972 8.34288 10.2425 9.39752 10.2425 10.7C10.2425 12.0025 11.2972 13.0572 12.5997 13.0572C13.9022 13.0572 14.9568 12.0025 14.9568 10.7C14.9568 9.39752 13.9022 8.34288 12.5997 8.34288Z" fill="#1A73E8"/>
</svg>
