<svg width="32" height="32" viewBox="0 0 32 32" fill="none" xmlns="http://www.w3.org/2000/svg">
<g id="24 / basic / eye-no">
<path id="icon" fill-rule="evenodd" clip-rule="evenodd" d="M3.60951 1.72385L1.72389 3.60947L7.14365 9.02923C6.63877 9.44765 6.13912 9.897 5.64498 10.3749C4.53935 11.4441 3.53911 12.5855 2.65858 13.7275C2.12724 14.4166 1.75 14.9587 1.54345 15.2816L1.08398 16L1.54345 16.7184C1.75 17.0413 2.12724 17.5834 2.65858 18.2725C3.53911 19.4145 4.53935 20.5559 5.64498 21.6251C8.88579 24.7592 12.3633 26.6667 16 26.6667C18.2946 26.6667 20.5258 25.9073 22.6741 24.5597L28.3906 30.2761L30.2762 28.3905L3.60951 1.72385ZM20.7262 22.6118L18.7093 20.5949C17.9153 21.0641 16.9891 21.3333 16 21.3333C13.0545 21.3333 10.6667 18.9455 10.6667 16C10.6667 15.0109 10.9359 14.0847 11.4051 13.2907L9.03966 10.9252C8.52313 11.3418 8.00907 11.7983 7.49875 12.2918C6.49315 13.2643 5.57655 14.3103 4.77036 15.3558C4.59624 15.5816 4.43535 15.7971 4.28825 16C4.43535 16.2029 4.59624 16.4183 4.77036 16.6442C5.57655 17.6897 6.49315 18.7357 7.49875 19.7082C10.29 22.4075 13.1933 24 16 24C17.5576 24 19.1448 23.5096 20.7262 22.6118ZM13.4237 15.3093C13.3648 15.5296 13.3334 15.7611 13.3334 16C13.3334 17.4728 14.5273 18.6667 16 18.6667C16.2389 18.6667 16.4705 18.6353 16.6908 18.5763L13.4237 15.3093ZM26.7975 21.1879L24.9118 19.3023C25.7574 18.4475 26.5346 17.5457 27.2297 16.6442C27.4038 16.4183 27.5647 16.2029 27.7118 16C27.5647 15.7971 27.4038 15.5816 27.2297 15.3558C26.4235 14.3103 25.5069 13.2643 24.5013 12.2918C21.71 9.5925 18.8068 8 16 8C15.3036 8 14.6013 8.09803 13.8962 8.28669L11.7869 6.17739C13.1635 5.6285 14.5694 5.33333 16 5.33333C19.6368 5.33333 23.1143 7.24083 26.3551 10.3749C27.4607 11.4441 28.461 12.5855 29.3415 13.7275C29.8728 14.4166 30.2501 14.9587 30.4566 15.2816L30.9161 16L30.4566 16.7184C30.2501 17.0413 29.8728 17.5834 29.3415 18.2725C28.5799 19.2602 27.7288 20.2475 26.7975 21.1879Z" fill="#C6C2DE"/>
</g>
</svg>
