<svg width="22" height="22" viewBox="0 0 22 22"  fill="#1A73E8" xmlns="http://www.w3.org/2000/svg">
<path d="M14.5903 0C16.7733 0 17.823 0.202713 18.9137 0.786019C19.9028 1.31499 20.685 2.0972 21.214 3.08629C21.7973 4.17697 22 5.22671 22 7.40971V14.5903C22 16.7733 21.7973 17.823 21.214 18.9137C20.685 19.9028 19.9028 20.685 18.9137 21.214C17.823 21.7973 16.7733 22 14.5903 22H7.40971C5.22671 22 4.17697 21.7973 3.08629 21.214C2.0972 20.685 1.31499 19.9028 0.786019 18.9137C0.202713 17.823 0 16.7733 0 14.5903V7.40971C0 5.22671 0.202713 4.17697 0.786019 3.08629C1.31499 2.0972 2.0972 1.31499 3.08629 0.786019C4.17697 0.202713 5.22671 0 7.40971 0H14.5903ZM14.5903 2H7.40971C5.52864 2 4.79082 2.14248 4.02948 2.54964C3.38894 2.89221 2.89221 3.38894 2.54964 4.02948C2.14248 4.79082 2 5.52864 2 7.40971V14.5903C2 16.4714 2.14248 17.2092 2.54964 17.9705C2.89221 18.6111 3.38894 19.1078 4.02948 19.4504C4.79082 19.8575 5.52864 20 7.40971 20H14.5903C16.4714 20 17.2092 19.8575 17.9705 19.4504C18.6111 19.1078 19.1078 18.6111 19.4504 17.9705C19.8575 17.2092 20 16.4714 20 14.5903V7.40971C20 5.52864 19.8575 4.79082 19.4504 4.02948C19.1078 3.38894 18.6111 2.89221 17.9705 2.54964C17.2092 2.14248 16.4714 2 14.5903 2ZM10 14.5C10.5523 14.5 11 14.9477 11 15.5C11 16.0523 10.5523 16.5 10 16.5H6C5.44772 16.5 5 16.0523 5 15.5C5 14.9477 5.44772 14.5 6 14.5H10ZM16 10C16.5523 10 17 10.4477 17 11C17 11.5523 16.5523 12 16 12H6C5.44772 12 5 11.5523 5 11C5 10.4477 5.44772 10 6 10H16ZM16 5.5C16.5523 5.5 17 5.94772 17 6.5C17 7.05228 16.5523 7.5 16 7.5H6C5.44772 7.5 5 7.05228 5 6.5C5 5.94772 5.44772 5.5 6 5.5H16Z"/>
</svg>
