<svg width="27" height="21" viewBox="0 0 27 21"  fill="#1A73E8" xmlns="http://www.w3.org/2000/svg">
<path d="M9.25 12C14.2011 12 18.5 13.7626 18.5 17.6429C18.5 19.6593 17.7189 20.5 16.0441 20.5H2.45588C0.781109 20.5 0 19.6593 0 17.6429C0 13.7626 4.29892 12 9.25 12ZM9.25 14C5.30402 14 2 15.3547 2 17.6429C2 18.5338 1.92853 18.5064 2.37213 18.5006L16.0441 18.5C16.5801 18.5 16.5 18.5862 16.5 17.6429C16.5 15.3547 13.196 14 9.25 14ZM21.2929 4.29289C21.6834 3.90237 22.3166 3.90237 22.7071 4.29289L26.7071 8.29289C27.0976 8.68342 27.0976 9.31658 26.7071 9.70711L22.7071 13.7071C22.3166 14.0976 21.6834 14.0976 21.2929 13.7071C20.9024 13.3166 20.9024 12.6834 21.2929 12.2929L23.585 10H17.5C16.9872 10 16.5645 9.61396 16.5067 9.11662L16.5 9C16.5 8.44772 16.9477 8 17.5 8H23.585L21.2929 5.70711C20.9324 5.34662 20.9047 4.77939 21.2097 4.3871L21.2929 4.29289ZM9 0C12.0385 0 14.5 2.46147 14.5 5.5C14.5 8.53853 12.0385 11 9 11C5.96147 11 3.5 8.53853 3.5 5.5C3.5 2.46147 5.96147 0 9 0ZM9 2C7.06603 2 5.5 3.56603 5.5 5.5C5.5 7.43397 7.06603 9 9 9C10.934 9 12.5 7.43397 12.5 5.5C12.5 3.56603 10.934 2 9 2Z"/>
</svg>
