<svg width="28" height="26" viewBox="0 0 28 26"  fill="#1A73E8" xmlns="http://www.w3.org/2000/svg">
<path d="M15.8642 10.219C15.1582 10.219 14.6112 10.766 14.6112 11.4414C14.6112 12.1168 15.1582 12.6638 15.8642 12.6638C16.509 12.6638 17.056 12.1168 17.056 11.4414C17.056 10.766 16.509 10.219 15.8642 10.219ZM7.30719 10.219C6.60124 10.219 6.0542 10.766 6.0542 11.4414C6.0542 12.1168 6.60124 12.6638 7.30719 12.6638C7.95202 12.6638 8.49905 12.1168 8.49905 11.4414C8.49905 10.766 7.95202 10.219 7.30719 10.219Z" fill="#1A73E8"/>
<path d="M25.674 7.89638C24.2041 5.87937 22.1504 4.53165 19.8981 3.92349V3.92655C19.3755 3.3459 18.7856 2.81108 18.1255 2.33434C13.1228 -1.30238 6.09992 -0.193027 2.44792 4.80975C-0.495071 8.87432 -0.369772 14.3416 2.63128 18.2259L2.65573 22.2782C2.65573 22.376 2.67101 22.4738 2.70157 22.5655C2.86355 23.082 3.41364 23.3662 3.92706 23.2042L7.79604 21.9848C8.81982 22.3485 9.87722 22.5563 10.9285 22.6144L10.9132 22.6266C13.6362 24.61 17.2057 25.2059 20.4787 24.1241L24.363 25.3893C24.4608 25.4199 24.5616 25.4382 24.6655 25.4382C25.2064 25.4382 25.6435 25.0012 25.6435 24.4603V20.3651C28.3359 16.7101 28.4061 11.6584 25.674 7.89638ZM8.22389 19.815L7.85716 19.6622L4.83165 20.6096L4.80109 17.4313L4.55661 17.1563C1.97117 14.0024 1.80003 9.45803 4.22044 6.12386C7.16649 2.08374 12.8141 1.19137 16.842 4.10686C20.8821 7.04374 21.7775 12.6822 18.859 16.6978C16.4111 20.0565 12.0287 21.2972 8.22389 19.815ZM23.657 19.2955L23.4125 19.6011L23.4431 22.7794L20.4481 21.7709L20.0814 21.9237C18.37 22.5594 16.5456 22.6113 14.8555 22.1376L14.8494 22.1346C17.1079 21.4409 19.1554 20.0351 20.6315 18.012C22.9663 14.7939 23.3453 10.7507 21.9884 7.3035L22.0067 7.31573C22.7096 7.81998 23.3545 8.44953 23.9015 9.21049C26.1202 12.2543 25.9949 16.3984 23.657 19.2955Z" fill="#1A73E8"/>
<path d="M11.586 10.219C10.88 10.219 10.333 10.766 10.333 11.4414C10.333 12.1168 10.88 12.6638 11.586 12.6638C12.2308 12.6638 12.7779 12.1168 12.7779 11.4414C12.7779 10.766 12.2308 10.219 11.586 10.219Z"/>
</svg>
