<svg width="40" height="42" viewBox="0 0 40 42" fill="none" xmlns="http://www.w3.org/2000/svg">
<circle cx="20" cy="20" r="20" fill="white"/>
<path d="M22.206 9.39965C22.206 9.39965 30.7995 10.7442 30.1478 22.9895C30.1455 23.0349 31.1414 23.6961 31.2195 23.7668C31.9139 24.3949 32.4966 25.1993 32.7514 26.1403C33.6587 29.4912 30.4149 32.9439 27.7917 33.8603C26.8119 34.2026 25.7762 34.3688 24.7385 34.399C17.9926 34.5954 9.06136 30.3078 8.60266 21.9344C8.58623 21.634 8.58218 21.3333 8.5899 21.0332C8.63057 19.4433 9.01429 17.8949 9.59262 16.4572C9.59236 16.4572 13.3467 7.14487 22.206 9.39965Z" fill="#A47539"/>
<g style="mix-blend-mode:multiply" opacity="0.5">
<path d="M30.365 23.1182C30.2721 23.3462 30.1793 23.6376 30.1534 23.8043C30.0428 24.5191 30.2875 25.2574 30.7124 25.7882C31.1157 26.2922 31.6918 26.6191 32.2495 26.7425C32.4378 26.7842 32.6658 26.8056 32.8652 26.8124C32.655 24.742 30.9698 23.4994 30.365 23.1182Z" fill="#FEB3A4"/>
</g>
<g style="mix-blend-mode:multiply" opacity="0.5">
<path d="M18.253 28.5602C19.8488 28.2172 20.8391 26.5354 20.4649 24.8037C20.0907 23.072 18.4937 21.9462 16.898 22.2892C15.3022 22.6322 14.3119 24.3141 14.6861 26.0457C15.0602 27.7774 16.6572 28.9032 18.253 28.5602Z" fill="#FEB3A4"/>
</g>
<path opacity="0.3" d="M26.0668 23.7169C26.0668 23.7169 27.43 22.4199 28.4853 23.6394L26.0668 23.7169Z" fill="#633B1D"/>
<path d="M13.3552 30.1814C8.81973 32.4547 4.7005 26.7499 6.01808 23.5441C6.85855 21.4992 9.31127 21.3409 10.7333 23.2093C11.5725 24.3121 12.2517 25.7215 12.6375 27.0697" fill="#A47539"/>
<path opacity="0.3" d="M9.61758 25.0908C10.2015 25.6851 10.671 26.5664 11.2479 27.0581C11.141 26.2356 10.9705 25.3572 10.5709 24.6159C10.1652 23.8629 9.42754 23.2426 8.67674 23.2934C7.74628 23.3566 6.98056 24.4406 6.88242 25.4235C6.94109 24.8353 8.12369 24.4375 8.57516 24.4934C9.28258 25.8266 9.55727 28.454 9.55727 28.454C10.1456 26.9668 9.90676 25.7969 9.61758 25.0908Z" fill="#633B1D"/>
<path d="M27.5465 26.857C28.1576 26.8739 28.7436 26.6991 29.2483 26.1744C29.5123 25.9002 29.7801 25.7492 30.159 25.9838C31.0661 26.5457 31.2796 27.9494 31.0358 28.8906C30.7681 29.9234 29.9617 30.756 29.0323 31.299C26.5315 32.7603 24.6134 32.4314 22.0544 31.4973C20.0401 30.7623 17.3169 29.2805 18.0072 26.7304C18.862 23.573 22.5461 25.0889 24.6248 25.9407C25.5074 26.3027 26.5597 26.8296 27.5465 26.857Z" fill="white"/>
<mask id="mask0_176_1472" style="mask-type:alpha" maskUnits="userSpaceOnUse" x="17" y="24" width="15" height="9">
<path d="M27.5468 26.8572C28.1579 26.8741 28.7438 26.6993 29.2485 26.1746C29.5125 25.9004 29.7803 25.7494 30.1592 25.984C31.0663 26.5459 31.2799 27.9496 31.036 28.8908C30.7683 29.9236 29.9619 30.7562 29.0326 31.2992C26.5318 32.7604 24.6136 32.4316 22.0546 31.4975C20.0403 30.7625 17.3171 29.2807 18.0074 26.7306C18.8622 23.5732 22.5463 25.0891 24.625 25.9409C25.5076 26.3029 26.56 26.8298 27.5468 26.8572Z" fill="white"/>
</mask>
<g mask="url(#mask0_176_1472)">
<path fill-rule="evenodd" clip-rule="evenodd" d="M19.2036 30.3641L21.8216 23.755L22.186 23.8995L19.568 30.5085L19.2036 30.3641ZM24.5829 32.4995L26.3911 25.5646L26.7704 25.6636L24.9622 32.5985L24.5829 32.4995ZM29.9647 30.8251L28.967 25.7408L29.3516 25.6653L30.3494 30.7496L29.9647 30.8251Z" fill="#D1D3D4"/>
</g>
<path d="M24.6722 22.2281C23.6255 21.404 22.3298 21.5825 21.7953 21.7803C21.7912 21.7818 21.7886 21.7763 21.7914 21.773C23.2307 20.1119 24.3107 21.3707 24.6788 22.2235C24.6805 22.2275 24.6756 22.2308 24.6722 22.2281Z" fill="#2A1200"/>
<path d="M29.7496 21.6435C29.7486 22.1637 29.5132 22.7224 28.9107 22.6582C28.4051 22.6043 28.276 21.9404 28.2766 21.6136C28.2778 21.042 28.5641 20.5019 28.9819 20.5011C29.4311 20.5003 29.7507 21.1233 29.7496 21.6435Z" fill="#2A1200"/>
<path d="M24.1622 17.6187C23.2682 17.4733 22.3103 17.8073 21.6673 18.485C21.46 18.7035 21.402 19.091 21.6186 19.3377C21.8187 19.5659 22.1828 19.6357 22.4047 19.4016C22.4712 19.3314 22.5407 19.2648 22.6143 19.2032C22.6373 19.184 22.7009 19.1499 22.7209 19.1215C22.732 19.1142 22.7429 19.1068 22.7544 19.0997C22.8246 19.0554 22.8968 19.015 22.9707 18.9782C23.0131 18.9573 23.0558 18.9378 23.0991 18.9193C23.1128 18.9136 23.1265 18.9081 23.1404 18.9026C23.1784 18.896 23.222 18.8754 23.2567 18.8659C23.3019 18.8536 23.3472 18.8427 23.3931 18.8332C23.4732 18.8165 23.554 18.804 23.6352 18.7958C23.6466 18.7946 23.6578 18.7938 23.6692 18.7929C23.713 18.7931 23.7567 18.7923 23.8006 18.794C23.894 18.7979 23.9869 18.8083 24.0795 18.8232C24.3683 18.8703 24.6679 18.5859 24.6765 18.2735C24.6855 17.9296 24.4716 17.6691 24.1622 17.6187Z" fill="#351700"/>
<path d="M30.1638 18.6456C29.8392 18.1988 29.3622 17.9056 28.8476 17.8205C28.7087 17.7976 28.5466 17.8508 28.4383 17.9435C28.3316 18.0348 28.242 18.1957 28.2327 18.3459C28.2231 18.5019 28.2538 18.6693 28.3512 18.7919C28.4499 18.9163 28.5738 18.9953 28.7246 19.0204C28.7493 19.0244 28.7733 19.0314 28.7979 19.0368C28.8704 19.0618 28.9405 19.0927 29.0089 19.129C29.0867 19.1816 29.1596 19.2415 29.2277 19.3084C29.2499 19.335 29.2734 19.3605 29.294 19.3888C29.383 19.511 29.5257 19.5982 29.6674 19.6172C29.803 19.6355 29.9719 19.5919 30.0767 19.494C30.1853 19.3927 30.2724 19.2522 30.2823 19.0916C30.2923 18.9314 30.2579 18.775 30.1638 18.6456Z" fill="#351700"/>
<path d="M8.56581 21.0496C8.55808 21.3499 8.56213 21.6509 8.57856 21.9516C11.0699 22.3745 12.2499 25.0429 12.5284 26.3242C12.5284 26.3242 13.2697 26.3678 13.4442 26.2262C14.3599 25.747 15.9886 23.7821 15.1775 19.7564C14.785 17.9266 15.0467 16.4697 18.2517 14.2015C21.4567 11.9334 26.5586 13.352 27.6051 14.2015C28.4423 14.8812 28.8436 15.1382 28.9396 15.1818C26.7049 10.1143 22.1824 9.40611 22.1824 9.40611C13.3228 7.14941 9.4819 16.2026 9.38884 16.4342C8.8105 17.8731 8.60647 19.4583 8.56581 21.0496Z" fill="#FFF4D4"/>
<path d="M31.0718 8.90813C29.0833 9.64007 27.7359 12.6985 27.3435 14.0055C25.4793 13.0906 24.2693 13.0253 22.307 12.9599C22.5251 12.2628 19.7888 10.1498 17.0089 10.4766C13.469 10.8927 11.3511 13.4174 11.1876 13.7441L9.22534 11.5222C15.0859 1.48422 26.2315 5.597 31.0718 8.90813Z" fill="#FFD355"/>
<path d="M31.0718 8.90811C29.0833 9.64005 27.7359 12.6985 27.3435 14.0055C25.4793 13.0906 24.2693 13.0252 22.307 12.9599C22.5251 12.2628 19.7888 10.1498 17.0089 10.4765C13.469 10.8926 11.3511 13.4174 11.1876 13.7441L9.22534 11.5222C10.8606 9.68144 15.5438 6.37248 21.1951 7.86249L31.0718 8.90811Z" fill="#E2A700"/>
<path d="M31.0721 8.90814C29.0836 9.64007 27.7362 12.6985 27.3438 14.0055C25.4796 13.0906 24.2696 13.0253 22.3073 12.9599C22.569 10.8164 21.1518 8.52692 20.6721 7.69914C23.5174 6.26141 29.7586 8.0096 31.0721 8.90814Z" fill="#FFC00C"/>
<path fill-rule="evenodd" clip-rule="evenodd" d="M33.2972 20.9702L30.092 20.855L30.0593 20.1688L33.3118 20.3168L33.2972 20.9702Z" fill="#007F77"/>
<path fill-rule="evenodd" clip-rule="evenodd" d="M21.8631 16.8836C20.0857 17.1637 18.8511 18.9852 19.1684 21.0002C19.4857 23.0153 21.2202 24.369 22.9977 24.0889C24.7751 23.8089 26.0097 21.9873 25.6924 19.9723C25.3751 17.9572 23.6406 16.6035 21.8631 16.8836ZM18.4726 20.2934C18.5066 18.2905 19.838 16.5411 21.7615 16.238C23.9401 15.8948 25.9661 17.5507 26.3316 19.8716C26.3316 19.872 26.3317 19.8725 26.3318 19.873C26.399 19.8459 26.4724 19.8198 26.5506 19.7971C26.7883 19.7279 27.0878 19.6855 27.3995 19.7506C27.4393 18.9338 27.6767 18.1838 28.0631 17.5915C28.5434 16.8552 29.2667 16.3483 30.1267 16.3032C30.9853 16.2583 31.7698 16.685 32.3458 17.3622C32.9219 18.0397 33.306 18.9834 33.3789 20.0315C33.4519 21.0796 33.2017 22.0586 32.7218 22.7942C32.2415 23.5305 31.5182 24.0375 30.6583 24.0825C29.7996 24.1274 29.0151 23.7008 28.4391 23.0235C27.8777 22.3633 27.4987 21.4505 27.4122 20.4345C27.1882 20.3428 26.9507 20.3612 26.7315 20.4249C26.5949 20.4647 26.4756 20.5197 26.3887 20.5663C26.4039 22.6159 25.0589 24.4257 23.0993 24.7345C20.9207 25.0778 18.8947 23.4218 18.5292 21.101C18.5218 21.0541 18.5152 21.0073 18.5093 20.9606L12.862 20.0507C11.8026 19.9041 10.7452 19.9527 9.96421 20.215C9.18085 20.4781 8.76742 21.4459 8.75499 22.0469L8.10793 22.0314C8.12859 21.0321 8.85403 19.8986 9.75829 19.595C10.6641 19.2908 11.8301 19.2482 12.9518 19.4039L12.9552 19.4044L18.4726 20.2934ZM28.604 17.952C28.2096 18.5565 27.9876 19.3904 28.0516 20.3103C28.1156 21.2302 28.452 22.037 28.9297 22.5988C29.4075 23.1607 30.0104 23.4621 30.6228 23.43C31.234 23.398 31.787 23.0376 32.181 22.4337C32.5753 21.8293 32.7974 20.9953 32.7333 20.0754C32.6693 19.1556 32.333 18.3487 31.8553 17.787C31.3774 17.225 30.7745 16.9237 30.1621 16.9557C29.5509 16.9877 28.9979 17.3481 28.604 17.952Z" fill="#2FBBB3"/>
</svg>
