<svg width="44" height="54" viewBox="0 0 44 54" fill="none" xmlns="http://www.w3.org/2000/svg">
<path fill-rule="evenodd" clip-rule="evenodd" d="M7.56885 13.4611H9.02795V23.4012H12.6757V13.4611H14.1348V32.0647H12.6757V24.4044H9.02795V32.0647H7.56885V13.4611Z" fill="black"/>
<path d="M9.57495 24.8603H9.93973V32.0646H9.57495V24.8603Z" fill="black"/>
<path d="M9.57495 34.7093H9.93973V38.357H9.57495V34.7093Z" fill="black"/>
<path d="M11.3079 24.8603H11.6726V32.0646H11.3079V24.8603Z" fill="black"/>
<path d="M11.3079 34.7093H11.6726V38.357H11.3079V34.7093Z" fill="black"/>
<path d="M12.6758 9.35736H13.0406V12.5491H12.6758V9.35736Z" fill="black"/>
<path d="M7.56885 9.35736H7.93362V12.5491H7.56885V9.35736Z" fill="black"/>
<path d="M8.11646 9.35736H8.48123V12.5491H8.11646V9.35736Z" fill="black"/>
<path d="M10.0312 24.8603H10.396V32.0646H10.0312V24.8603Z" fill="black"/>
<path d="M10.0312 34.7093H10.396V38.357H10.0312V34.7093Z" fill="black"/>
<path d="M11.7642 24.8603H12.1289V32.0646H11.7642V24.8603Z" fill="black"/>
<path d="M11.7642 34.7093H12.1289V38.357H11.7642V34.7093Z" fill="black"/>
<path d="M13.2234 9.35736H13.5882V12.5491H13.2234V9.35736Z" fill="black"/>
<path d="M8.11646 7.25989H8.48123V8.71899H8.11646V7.25989Z" fill="black"/>
<path d="M13.2234 7.25989H13.5882V8.71899H13.2234V7.25989Z" fill="black"/>
<path d="M13.7703 9.35736H14.135V12.5491H13.7703V9.35736Z" fill="black"/>
<path d="M8.66333 9.35736H9.02811V12.5491H8.66333V9.35736Z" fill="black"/>
<path fill-rule="evenodd" clip-rule="evenodd" d="M12.5795 8.71899H12.9494V7.25989H11.5918C12.1413 7.53085 12.5307 8.07733 12.5795 8.71899ZM10.021 7.25989H8.66333V8.71899H9.03329C9.0821 8.07733 9.47145 7.53085 10.021 7.25989ZM11.7639 10.3545C11.8991 10.268 12.0218 10.1636 12.1287 10.0448V23.0364H11.7639V10.3545ZM9.57527 10.139V23.0364H9.94004V10.4091C9.80698 10.3347 9.68445 10.2438 9.57527 10.139ZM10.0312 10.4567C10.1464 10.5126 10.2686 10.5564 10.396 10.5865V23.0364H10.0312V10.4567ZM11.308 10.5623C11.4361 10.5247 11.5583 10.4731 11.6727 10.4091V23.0364H11.308V10.5623Z" fill="black"/>
<path d="M12.4021 8.81018C12.4021 9.66639 11.708 10.3605 10.8518 10.3605C9.9956 10.3605 9.30151 9.66639 9.30151 8.81018C9.30151 7.95398 9.9956 7.25989 10.8518 7.25989C11.708 7.25989 12.4021 7.95398 12.4021 8.81018Z" fill="black"/>
<path d="M11.0342 8.81016C11.0342 8.91089 10.9526 8.99255 10.8518 8.99255C10.7511 8.99255 10.6694 8.91089 10.6694 8.81016C10.6694 8.70943 10.7511 8.62778 10.8518 8.62778C10.9526 8.62778 11.0342 8.70943 11.0342 8.81016Z" fill="black"/>
<path d="M10.7151 8.39983V8.58222H10.5327L9.93994 7.71588L10.7151 8.39983Z" fill="black"/>
<path d="M10.4988 8.99712L10.6812 8.99257L10.6857 9.1749L10.1343 9.49414L10.4988 8.99712Z" fill="black"/>
<path fill-rule="evenodd" clip-rule="evenodd" d="M8.75493 5.07124H8.29896V6.71272H8.75493V5.07124ZM8.20776 4.98004V6.80392H8.84612V4.98004H8.20776Z" fill="black"/>
<path fill-rule="evenodd" clip-rule="evenodd" d="M13.5883 4.70649H8.02552V4.98007H13.5883V4.70649ZM7.93433 4.6153V5.07126H13.6795V4.6153H7.93433Z" fill="black"/>
<path fill-rule="evenodd" clip-rule="evenodd" d="M13.9525 4.3212L10.8519 3.52391L7.75135 4.3212V4.61527H13.9525V4.3212ZM10.8519 3.42975L14.0437 4.25049V4.70646H7.66016V4.25049L10.8519 3.42975Z" fill="black"/>
<path fill-rule="evenodd" clip-rule="evenodd" d="M10.6456 1.08011C10.4823 1.76071 10.3031 2.50768 10.2584 2.75398C10.23 2.90992 10.2187 3.10068 10.2202 3.26406C10.221 3.34563 10.225 3.41957 10.2314 3.47822C10.2352 3.51243 10.2396 3.53935 10.2441 3.55898L10.8522 3.42866L11.4172 3.55904C11.4551 3.44887 11.4966 3.17374 11.4002 2.75608C11.3001 2.32218 11.0145 0.991751 10.8502 0.220881C10.796 0.452859 10.7226 0.7591 10.6456 1.08011ZM10.5586 1.05157C10.6602 0.627876 10.7553 0.231499 10.8074 0L10.8965 0.000520013C11.0485 0.71507 11.3797 2.26184 11.489 2.73557C11.5999 3.21574 11.5374 3.52852 11.4854 3.63256L11.4693 3.66467L10.8515 3.52208L10.1885 3.66415L10.1727 3.63256C10.1572 3.60153 10.1474 3.54818 10.1408 3.4882C10.1339 3.42574 10.1298 3.34863 10.129 3.26492C10.1275 3.09772 10.139 2.90091 10.1686 2.73767C10.2138 2.48937 10.3947 1.73494 10.5586 1.05157Z" fill="black"/>
<path fill-rule="evenodd" clip-rule="evenodd" d="M7.56875 6.75836H14.0891V8.58224H14.3627V8.90142H14.9099V12.5492H15.1834V32.5306L18.284 33.3058V33.7061H3.41943V33.3058L6.52002 32.5306V12.5492H6.8392V8.90142H7.29517V8.58224H7.56875V6.75836ZM7.65995 6.84956V8.67343H7.38636V8.99261H6.9304V12.6404H6.61122V32.6018L3.51063 33.377V33.6149H18.1928V33.377L15.0922 32.6018V12.6404H14.8187V8.99261H14.2715V8.67343H13.9979V6.84956H7.65995Z" fill="black"/>
<path fill-rule="evenodd" clip-rule="evenodd" d="M10.0311 5.25367H9.39271V6.71277H10.0311V5.25367ZM9.30151 5.16248V6.80396H10.1223V5.16248H9.30151Z" fill="black"/>
<path fill-rule="evenodd" clip-rule="evenodd" d="M11.2167 5.25367H10.4872V6.71277H11.2167V5.25367ZM10.396 5.16248V6.80396H11.3079V5.16248H10.396Z" fill="black"/>
<path fill-rule="evenodd" clip-rule="evenodd" d="M12.3108 5.25367H11.6725V6.71277H12.3108V5.25367ZM11.5813 5.16248V6.80396H12.402V5.16248H11.5813Z" fill="black"/>
<path fill-rule="evenodd" clip-rule="evenodd" d="M13.4058 5.07124H12.9498V6.71272H13.4058V5.07124ZM12.8586 4.98004V6.80392H13.497V4.98004H12.8586Z" fill="black"/>
<path fill-rule="evenodd" clip-rule="evenodd" d="M17.6914 33.7061H4.01234V33.9797H17.6914V33.7061ZM3.92114 33.6149V34.0709H17.7826V33.6149H3.92114Z" fill="black"/>
<path fill-rule="evenodd" clip-rule="evenodd" d="M17.6914 34.0709H4.01234V34.4356H17.6914V34.0709ZM3.92114 33.9797V34.5268H17.7826V33.9797H3.92114Z" fill="black"/>
<path fill-rule="evenodd" clip-rule="evenodd" d="M18.239 38.813H3.55677V38.9954H18.239V38.813ZM3.46558 38.7218V39.0865H18.3302V38.7218H3.46558Z" fill="black"/>
<path fill-rule="evenodd" clip-rule="evenodd" d="M18.7857 39.1777H3.00916V39.5425H18.7857V39.1777ZM2.91797 39.0865V39.6337H18.8769V39.0865H2.91797Z" fill="black"/>
<path fill-rule="evenodd" clip-rule="evenodd" d="M19.333 39.7249H2.37098V40.0897H19.333V39.7249ZM2.27979 39.6337V40.1809H19.4242V39.6337H2.27979Z" fill="black"/>
<path fill-rule="evenodd" clip-rule="evenodd" d="M5.83634 35.1652H5.47156V36.2596H5.83634V35.1652ZM5.38037 35.074V36.3507H5.92753V35.074H5.38037Z" fill="black"/>
<path fill-rule="evenodd" clip-rule="evenodd" d="M4.10364 34.618H5.28916V34.9929L5.2881 34.993C5.24113 34.9962 5.1951 34.9949 5.1668 34.9866C5.13754 34.9779 5.12 34.9614 5.08838 34.9257L5.08316 34.9198C5.05308 34.8857 5.00857 34.8351 4.9344 34.8065C4.85827 34.7772 4.78467 34.7578 4.70802 34.7565C4.63033 34.7552 4.55532 34.7725 4.47616 34.8087C4.40716 34.8402 4.36865 34.8911 4.34329 34.9246L4.33959 34.9295C4.31293 34.9646 4.29921 34.9797 4.27519 34.9893C4.24264 35.0022 4.1871 35.0044 4.12829 34.9992C4.11976 34.9984 4.1115 34.9976 4.10364 34.9966V34.618ZM5.38036 34.618V35.074C5.38036 35.074 5.31424 35.0857 5.24357 35.0858V38.6306V38.6762H5.19797H4.19484H4.14924V38.6306V35.0921C4.07536 35.0882 4.01245 35.074 4.01245 35.074V34.618V34.5269H4.10364H5.28916H5.38036V34.618ZM4.24044 35.09V38.585H5.15237V35.077C5.14848 35.0761 5.14468 35.0751 5.14097 35.074C5.08262 35.0568 5.04991 35.0198 5.01672 34.9823C4.98581 34.9474 4.95448 34.912 4.90159 34.8916C4.76037 34.8372 4.65171 34.8288 4.51402 34.8916C4.46633 34.9134 4.44004 34.948 4.41398 34.9824C4.38674 35.0182 4.35975 35.0538 4.30883 35.074C4.28835 35.0821 4.26494 35.0872 4.24044 35.09Z" fill="black"/>
<path fill-rule="evenodd" clip-rule="evenodd" d="M12.5848 34.618H13.7704V34.9929L13.7693 34.993C13.7223 34.9962 13.6763 34.9949 13.648 34.9866C13.6187 34.9779 13.6012 34.9614 13.5696 34.9257L13.5644 34.9198C13.5343 34.8857 13.4898 34.8351 13.4156 34.8065C13.3395 34.7772 13.2659 34.7578 13.1892 34.7565C13.1115 34.7552 13.0365 34.7725 12.9574 34.8087C12.8884 34.8402 12.8499 34.8911 12.8245 34.9246L12.8208 34.9295C12.7941 34.9646 12.7804 34.9797 12.7564 34.9893C12.7238 35.0022 12.6683 35.0044 12.6095 34.9992C12.601 34.9984 12.5927 34.9976 12.5848 34.9966V34.618ZM13.8616 34.618V35.074C13.8616 35.074 13.7954 35.0857 13.7248 35.0858V38.6306V38.6762H13.6792H12.676H12.6304V38.6306V35.0921C12.5566 35.0882 12.4937 35.074 12.4937 35.074V34.618V34.5269H12.5848H13.7704H13.8616V34.618ZM12.7216 35.09V38.585H13.6336V35.077C13.6297 35.0761 13.6259 35.0751 13.6222 35.074C13.5638 35.0568 13.5311 35.0198 13.4979 34.9823C13.467 34.9474 13.4357 34.912 13.3828 34.8916C13.2416 34.8372 13.1329 34.8288 12.9952 34.8916C12.9475 34.9134 12.9212 34.948 12.8952 34.9824C12.8679 35.0182 12.841 35.0538 12.79 35.074C12.7696 35.0821 12.7461 35.0872 12.7216 35.09Z" fill="black"/>
<path fill-rule="evenodd" clip-rule="evenodd" d="M6.01844 34.618H7.20396V34.9929L7.20289 34.993C7.15592 34.9962 7.10989 34.9949 7.08159 34.9866C7.05233 34.9779 7.03479 34.9614 7.00317 34.9257L6.99795 34.9198C6.96787 34.8857 6.92336 34.8351 6.84919 34.8065C6.77306 34.7772 6.69947 34.7578 6.62282 34.7565C6.54513 34.7552 6.47012 34.7725 6.39095 34.8087C6.32195 34.8402 6.28345 34.8911 6.25809 34.9246L6.25439 34.9295C6.22773 34.9646 6.214 34.9797 6.18998 34.9893C6.15744 35.0022 6.10189 35.0044 6.04309 34.9992C6.03455 34.9984 6.0263 34.9976 6.01844 34.9966V34.618ZM7.29515 34.618V35.074C7.29515 35.074 7.22904 35.0857 7.15836 35.0858V38.6306V38.6762H7.11277H6.10963H6.06404V38.6306V35.0921C5.99015 35.0882 5.92725 35.074 5.92725 35.074V34.618V34.5269H6.01844H7.20396H7.29515V34.618ZM6.15523 35.09V38.585H7.06717V35.077C7.06328 35.0761 7.05947 35.0751 7.05577 35.074C6.99741 35.0568 6.96471 35.0198 6.93152 34.9823C6.90061 34.9474 6.86927 34.912 6.81639 34.8916C6.67516 34.8372 6.56651 34.8288 6.42881 34.8916C6.38112 34.9134 6.35483 34.948 6.32877 34.9824C6.30154 35.0182 6.27455 35.0538 6.22363 35.074C6.20315 35.0821 6.17973 35.0872 6.15523 35.09Z" fill="black"/>
<path fill-rule="evenodd" clip-rule="evenodd" d="M14.4999 34.618H15.6854V34.9929L15.6843 34.993C15.6374 34.9962 15.5913 34.9949 15.563 34.9866C15.5338 34.9779 15.5162 34.9614 15.4846 34.9257L15.4794 34.9198C15.4493 34.8857 15.4048 34.8351 15.3306 34.8065C15.2545 34.7772 15.1809 34.7578 15.1043 34.7565C15.0266 34.7552 14.9516 34.7725 14.8724 34.8087C14.8034 34.8402 14.7649 34.8911 14.7395 34.9246L14.7358 34.9295C14.7092 34.9646 14.6954 34.9797 14.6714 34.9893C14.6389 35.0022 14.5833 35.0044 14.5245 34.9992C14.516 34.9984 14.5077 34.9976 14.4999 34.9966V34.618ZM15.7766 34.618V35.074C15.7766 35.074 15.7105 35.0857 15.6398 35.0858V38.6306V38.6762H15.5942H14.5911H14.5455V38.6306V35.0921C14.4716 35.0882 14.4087 35.074 14.4087 35.074V34.618V34.5269H14.4999H15.6854H15.7766V34.618ZM14.6367 35.09V38.585H15.5486V35.077C15.5447 35.0761 15.5409 35.0751 15.5372 35.074C15.4789 35.0568 15.4462 35.0198 15.413 34.9823C15.3821 34.9474 15.3507 34.912 15.2978 34.8916C15.1566 34.8372 15.048 34.8288 14.9103 34.8916C14.8626 34.9134 14.8363 34.948 14.8102 34.9824C14.783 35.0182 14.756 35.0538 14.7051 35.074C14.6846 35.0821 14.6612 35.0872 14.6367 35.09Z" fill="black"/>
<path fill-rule="evenodd" clip-rule="evenodd" d="M7.93421 34.618H9.11973V34.9929L9.11867 34.993C9.07169 34.9962 9.02566 34.9949 8.99736 34.9866C8.9681 34.9779 8.95057 34.9614 8.91894 34.9257L8.91373 34.9198C8.88364 34.8857 8.83914 34.8351 8.76496 34.8065C8.68884 34.7772 8.61524 34.7578 8.53859 34.7565C8.4609 34.7552 8.38589 34.7725 8.30672 34.8087C8.23772 34.8402 8.19922 34.8911 8.17386 34.9246L8.17016 34.9295C8.1435 34.9646 8.12977 34.9797 8.10575 34.9893C8.07321 35.0022 8.01766 35.0044 7.95886 34.9992C7.95033 34.9984 7.94207 34.9976 7.93421 34.9966V34.618ZM9.21092 34.618V35.074C9.21092 35.074 9.14481 35.0857 9.07413 35.0858V38.6306V38.6762H9.02854H8.02541H7.97981V38.6306V35.0921C7.90593 35.0882 7.84302 35.074 7.84302 35.074V34.618V34.5269H7.93421H9.11973H9.21092V34.618ZM8.071 35.09V38.585H8.98294V35.077C8.97905 35.0761 8.97524 35.0751 8.97154 35.074C8.91318 35.0568 8.88048 35.0198 8.84729 34.9823C8.81638 34.9474 8.78504 34.912 8.73216 34.8916C8.59093 34.8372 8.48228 34.8288 8.34458 34.8916C8.29689 34.9134 8.27061 34.948 8.24454 34.9824C8.21731 35.0182 8.19032 35.0538 8.1394 35.074C8.11892 35.0821 8.0955 35.0872 8.071 35.09Z" fill="black"/>
<path fill-rule="evenodd" clip-rule="evenodd" d="M16.4147 34.618H17.6002V34.9929L17.5991 34.993C17.5522 34.9962 17.5061 34.9949 17.4778 34.9866C17.4486 34.9779 17.431 34.9614 17.3994 34.9257L17.3942 34.9198C17.3641 34.8857 17.3196 34.8351 17.2454 34.8065C17.1693 34.7772 17.0957 34.7578 17.0191 34.7565C16.9414 34.7552 16.8664 34.7725 16.7872 34.8087C16.7182 34.8402 16.6797 34.8911 16.6543 34.9246L16.6506 34.9295C16.624 34.9646 16.6102 34.9797 16.5862 34.9893C16.5537 35.0022 16.4981 35.0044 16.4393 34.9992C16.4308 34.9984 16.4225 34.9976 16.4147 34.9966V34.618ZM17.6914 34.618V35.074C17.6914 35.074 17.6253 35.0857 17.5546 35.0858V38.6306V38.6762H17.509H16.5059H16.4603V38.6306V35.0921C16.3864 35.0882 16.3235 35.074 16.3235 35.074V34.618V34.5269H16.4147H17.6002H17.6914V34.618ZM16.5515 35.09V38.585H17.4634V35.077C17.4595 35.0761 17.4557 35.0751 17.452 35.074C17.3937 35.0568 17.3609 35.0198 17.3278 34.9823C17.2968 34.9474 17.2655 34.912 17.2126 34.8916C17.0714 34.8372 16.9627 34.8288 16.8251 34.8916C16.7774 34.9134 16.7511 34.948 16.725 34.9824C16.6978 35.0182 16.6708 35.0538 16.6199 35.074C16.5994 35.0821 16.576 35.0872 16.5515 35.09Z" fill="black"/>
<path fill-rule="evenodd" clip-rule="evenodd" d="M14.3168 35.1652H13.952V36.2596H14.3168V35.1652ZM13.8608 35.074V36.3507H14.408V35.074H13.8608Z" fill="black"/>
<path fill-rule="evenodd" clip-rule="evenodd" d="M7.75138 35.1652H7.3866V36.2596H7.75138V35.1652ZM7.29541 35.074V36.3507H7.84257V35.074H7.29541Z" fill="black"/>
<path fill-rule="evenodd" clip-rule="evenodd" d="M16.2326 35.1652H15.8678V36.2596H16.2326V35.1652ZM15.7766 35.074V36.3507H16.3238V35.074H15.7766Z" fill="black"/>
<path fill-rule="evenodd" clip-rule="evenodd" d="M5.83634 36.8979H5.47156V37.9922H5.83634V36.8979ZM5.38037 36.8067V38.0834H5.92753V36.8067H5.38037Z" fill="black"/>
<path fill-rule="evenodd" clip-rule="evenodd" d="M14.3168 36.8979H13.952V37.9922H14.3168V36.8979ZM13.8608 36.8067V38.0834H14.408V36.8067H13.8608Z" fill="black"/>
<path fill-rule="evenodd" clip-rule="evenodd" d="M7.75138 36.8979H7.3866V37.9922H7.75138V36.8979ZM7.29541 36.8067V38.0834H7.84257V36.8067H7.29541Z" fill="black"/>
<path fill-rule="evenodd" clip-rule="evenodd" d="M16.2326 36.8979H15.8678V37.9922H16.2326V36.8979ZM15.7766 36.8067V38.0834H16.3238V36.8067H15.7766Z" fill="black"/>
<path fill-rule="evenodd" clip-rule="evenodd" d="M12.3109 34.618H9.39271V38.5394H12.3109V34.618ZM9.30151 34.5269V38.6306H12.4021V34.5269H9.30151Z" fill="black"/>
<path d="M0 41.5488H43.5906V41.8223H0V41.5488Z" fill="black"/>
<path d="M4.27611 44.2602L3.95586 44.5059C3.77918 44.2759 3.5666 44.1019 3.31813 43.9841C3.0715 43.8645 2.80003 43.8047 2.50371 43.8047C2.17978 43.8047 1.87978 43.8829 1.6037 44.0394C1.32763 44.194 1.11321 44.4029 0.96045 44.6661C0.809529 44.9274 0.734069 45.2219 0.734069 45.5495C0.734069 46.0446 0.903395 46.4578 1.24205 46.7891C1.58254 47.1204 2.01138 47.286 2.52856 47.286C3.09727 47.286 3.57304 47.0633 3.95586 46.6179L4.27611 46.8608C4.07366 47.1185 3.82059 47.3182 3.5169 47.4599C3.21506 47.5998 2.87733 47.6697 2.50371 47.6697C1.79328 47.6697 1.23284 47.4332 0.822413 46.9602C0.478239 46.5608 0.306152 46.0786 0.306152 45.5136C0.306152 44.9191 0.514129 44.4194 0.930082 44.0145C1.34788 43.6078 1.87058 43.4044 2.49819 43.4044C2.87733 43.4044 3.21966 43.4798 3.52519 43.6308C3.83071 43.7799 4.08102 43.9897 4.27611 44.2602Z" fill="black"/>
<path d="M4.69022 43.9013V43.5065H6.91815V43.9013H6.01262V47.5676H5.59851V43.9013H4.69022Z" fill="black"/>
<path d="M7.49791 43.5065H8.30681C8.77061 43.5065 9.0835 43.5268 9.24546 43.5673C9.47736 43.6243 9.66694 43.7421 9.81418 43.9206C9.96142 44.0973 10.035 44.32 10.035 44.5888C10.035 44.8593 9.96326 45.0829 9.8197 45.2596C9.67614 45.4345 9.47828 45.5523 9.22614 45.613C9.04209 45.6572 8.69791 45.6792 8.19362 45.6792H7.90374V47.5676H7.49791V43.5065ZM7.90374 43.9013V45.2817L8.59116 45.29C8.86908 45.29 9.07245 45.2651 9.20129 45.2154C9.33012 45.1639 9.43135 45.082 9.50497 44.9697C9.57859 44.8556 9.6154 44.7286 9.6154 44.5888C9.6154 44.4526 9.57859 44.3283 9.50497 44.216C9.43135 44.1019 9.33381 44.021 9.21233 43.9731C9.0927 43.9252 8.89577 43.9013 8.62153 43.9013H7.90374Z" fill="black"/>
<path d="M12.782 43.4044C13.3967 43.4044 13.9111 43.6096 14.3252 44.02C14.7394 44.4305 14.9464 44.9357 14.9464 45.5357C14.9464 46.1302 14.7394 46.6345 14.3252 47.0486C13.913 47.4627 13.4096 47.6697 12.8151 47.6697C12.2133 47.6697 11.7053 47.4636 11.2912 47.0513C10.8771 46.6391 10.67 46.1403 10.67 45.555C10.67 45.1648 10.7639 44.8032 10.9516 44.47C11.1412 44.1369 11.3988 43.8765 11.7246 43.6887C12.0504 43.4992 12.4028 43.4044 12.782 43.4044ZM12.8013 43.8019C12.5013 43.8019 12.2169 43.8802 11.9482 44.0366C11.6795 44.193 11.4697 44.4038 11.3188 44.6688C11.1679 44.9338 11.0924 45.2292 11.0924 45.555C11.0924 46.0372 11.259 46.4449 11.5921 46.778C11.9271 47.1093 12.3301 47.275 12.8013 47.275C13.116 47.275 13.4068 47.1986 13.6737 47.0458C13.9424 46.8931 14.1513 46.6842 14.3004 46.4191C14.4513 46.1541 14.5268 45.8596 14.5268 45.5357C14.5268 45.2136 14.4513 44.9228 14.3004 44.6633C14.1513 44.4019 13.9406 44.193 13.6682 44.0366C13.3958 43.8802 13.1068 43.8019 12.8013 43.8019Z" fill="black"/>
<path d="M18.9523 47.5676H18.5299V44.4562L15.8547 47.5676H15.7636V43.5065H16.1694V46.6731L18.8612 43.5065H18.9523V47.5676Z" fill="black"/>
<path d="M19.5431 43.9013V43.5065H21.771V43.9013H20.8655V47.5676H20.4513V43.9013H19.5431Z" fill="black"/>
<path d="M22.3563 43.5065H24.6836V43.9068H22.7621V45.1768H24.667V45.5743H22.7621V47.1673H24.667V47.5676H22.3563V43.5065Z" fill="black"/>
<path d="M28.6729 47.5676H28.2311L26.8867 44.4286L25.5173 47.5676H25.0756L26.8425 43.5065H26.9308L28.6729 47.5676Z" fill="black"/>
<path d="M29.352 43.5065H29.7578V45.2486H30.0505C30.5824 45.2486 30.9643 45.2743 31.1962 45.3259C31.4281 45.3774 31.6149 45.4961 31.7566 45.682C31.8983 45.8661 31.9692 46.1044 31.9692 46.397C31.9692 46.6842 31.9002 46.9225 31.7621 47.1121C31.6241 47.2998 31.4483 47.4231 31.2348 47.482C31.0213 47.5391 30.6634 47.5676 30.1609 47.5676H29.352V43.5065ZM29.7578 47.1756H30.1913C30.6477 47.1756 30.945 47.1544 31.083 47.1121C31.2229 47.0679 31.3333 46.9869 31.4143 46.8691C31.4971 46.7513 31.5385 46.6004 31.5385 46.4164C31.5385 46.2139 31.487 46.0492 31.3839 45.9222C31.2808 45.7952 31.1493 45.7179 30.9891 45.6903C30.8308 45.6608 30.5345 45.6461 30.1002 45.6461H29.7578V47.1756Z" fill="black"/>
<path d="M32.7781 43.5065H33.1867V45.2099H35.2517V43.5065H35.6603V47.5676H35.2517V45.6075H33.1867V47.5676H32.7781V43.5065Z" fill="black"/>
<path d="M38.3079 43.5065L40.2018 47.5676H39.7656L39.1278 46.2314H37.3775L36.7425 47.5676H36.2898L38.2085 43.5065H38.3079ZM38.2582 44.3679L37.5597 45.8394H38.9484L38.2582 44.3679Z" fill="black"/>
<path d="M43.1364 43.5065H42.3275C41.8766 43.5065 41.5711 43.5249 41.411 43.5618C41.1699 43.617 40.9738 43.7357 40.8229 43.9179C40.672 44.0983 40.5965 44.321 40.5965 44.586C40.5965 44.8068 40.6481 45.001 40.7511 45.1685C40.856 45.336 41.0051 45.463 41.1984 45.5495C41.3916 45.6342 41.6585 45.6774 41.999 45.6792L40.5386 47.5676H41.041L42.4987 45.6792H42.7306V47.5676H43.1364V43.5065ZM42.7306 43.9041V45.2845L42.0321 45.29C41.7616 45.29 41.561 45.2642 41.4303 45.2127C41.3015 45.1611 41.2002 45.0792 41.1266 44.967C41.0548 44.8529 41.0189 44.7259 41.0189 44.586C41.0189 44.4498 41.0557 44.3265 41.1294 44.216C41.203 44.1038 41.2996 44.0237 41.4192 43.9759C41.5389 43.928 41.7376 43.9041 42.0156 43.9041H42.7306Z" fill="black"/>
<path d="M0.58667 48.2924H1.1544V50.3816L3.37614 48.2924H4.12934L1.45341 50.7904L4.33751 53.86H3.59945L1.1544 51.2635V53.86H0.58667V48.2924Z" fill="black"/>
<path d="M7.66458 48.1523C8.50736 48.1523 9.21261 48.4337 9.78034 48.9964C10.3481 49.5591 10.6319 50.2517 10.6319 51.0743C10.6319 51.8893 10.3481 52.5807 9.78034 53.1484C9.21513 53.7161 8.52502 54 7.71 54C6.8849 54 6.18847 53.7174 5.62074 53.1522C5.053 52.587 4.76914 51.9032 4.76914 51.1008C4.76914 50.5658 4.89782 50.07 5.1552 49.6133C5.41509 49.1566 5.76835 48.7996 6.21497 48.5422C6.66159 48.2823 7.14479 48.1523 7.66458 48.1523ZM7.69108 48.6974C7.27979 48.6974 6.88994 48.8046 6.52154 49.0191C6.15315 49.2336 5.8655 49.5225 5.65859 49.8858C5.45168 50.2492 5.34823 50.6542 5.34823 51.1008C5.34823 51.7619 5.57658 52.3208 6.03329 52.7775C6.49253 53.2317 7.04512 53.4588 7.69108 53.4588C8.12256 53.4588 8.52123 53.3541 8.88711 53.1446C9.2555 52.9352 9.54189 52.6488 9.74628 52.2855C9.95319 51.9221 10.0566 51.5184 10.0566 51.0743C10.0566 50.6327 9.95319 50.234 9.74628 49.8783C9.54189 49.52 9.25298 49.2336 8.87954 49.0191C8.50609 48.8046 8.10994 48.6974 7.69108 48.6974Z" fill="black"/>
<path d="M11.3399 53.86L12.1309 48.2924H12.2218L14.4851 52.8608L16.7258 48.2924H16.8166L17.6152 53.86H17.0664L16.5214 49.8783L14.5533 53.86H14.4132L12.4186 49.848L11.8773 53.86H11.3399Z" fill="black"/>
<path d="M18.554 48.2924H22.5055V53.86H21.9453V48.8223H19.1142V53.86H18.554V48.2924Z" fill="black"/>
<path d="M25.9802 48.2924L28.5766 53.86H27.9786L27.1043 52.0281H24.7047L23.8341 53.86H23.2134L25.8439 48.2924H25.9802ZM25.912 49.4733L24.9545 51.4906H26.8583L25.912 49.4733Z" fill="black"/>
<path d="M29.2808 48.2924H29.8409V50.6277H32.672V48.2924H33.2322V53.86H32.672V51.1727H29.8409V53.86H29.2808V48.2924Z" fill="black"/>
<path d="M38.8075 53.86H38.2284V49.5944L34.5608 53.86H34.4359V48.2924H34.9923V52.6337L38.6826 48.2924H38.8075V53.86Z" fill="black"/>
<path d="M43.1716 48.2924H42.0627C41.4445 48.2924 41.0256 48.3176 40.8061 48.3681C40.4755 48.4438 40.2068 48.6065 39.9999 48.8563C39.793 49.1036 39.6895 49.4089 39.6895 49.7723C39.6895 50.0751 39.7602 50.3413 39.9015 50.5709C40.0453 50.8005 40.2497 50.9746 40.5146 51.0932C40.7796 51.2093 41.1455 51.2686 41.6123 51.2711L39.6101 53.86H40.2989L42.2973 51.2711H42.6153V53.86H43.1716V48.2924ZM42.6153 48.8374V50.7299L41.6577 50.7374C41.2868 50.7374 41.0117 50.7021 40.8326 50.6315C40.6559 50.5608 40.5172 50.4485 40.4162 50.2946C40.3178 50.1382 40.2686 49.964 40.2686 49.7723C40.2686 49.5856 40.3191 49.4165 40.42 49.2651C40.5209 49.1112 40.6534 49.0014 40.8174 48.9358C40.9814 48.8702 41.254 48.8374 41.635 48.8374H42.6153Z" fill="black"/>
<path d="M18.0563 23.9028H16.05V29.1008C16.05 29.2984 16.0774 29.803 16.1868 30.2407C16.3236 30.7879 16.8708 31.8822 18.7403 32.0646C20.2358 32.2105 21.5521 31.4263 22.0232 31.0159V31.8822H23.9383V23.9028H22.0232V28.2345C21.9169 28.4017 21.6129 28.809 21.2481 29.1008C20.7921 29.4656 19.9258 29.9672 19.105 30.0584C18.4484 30.1313 18.1323 29.6936 18.0563 29.4656V23.9028Z" fill="black"/>
<path d="M24.668 31.8822V23.9028H26.583V26.9122H27.6318L30.8236 23.9028H33.6506L29.5468 27.9609L33.6506 31.8822H30.8236L27.6318 28.9184H26.583V31.8822H24.668Z" fill="black"/>
<path fill-rule="evenodd" clip-rule="evenodd" d="M33.9695 23.9024L34.0155 23.9028L39.4867 23.9484C39.4868 23.9484 39.4869 23.9484 39.4869 23.9484C39.7011 23.9484 39.9884 24.0217 40.2811 24.1675C40.5744 24.3136 40.8762 24.534 41.118 24.8316C41.3616 25.1314 41.5042 25.5346 41.5843 25.9133C41.6645 26.2921 41.683 26.651 41.6754 26.8674V31.8822V31.9278H41.6298H35.8846C35.2363 31.9278 34.6646 31.7192 34.2554 31.2807C33.8463 30.8425 33.6047 30.1803 33.6047 29.2832C33.6047 28.3585 33.9169 27.7401 34.3969 27.3542C34.8752 26.9696 35.5137 26.821 36.1582 26.821H39.6152C39.6124 26.7972 39.6102 26.7711 39.608 26.7442L39.6075 26.7376C39.6033 26.687 39.5987 26.6305 39.5898 26.5712C39.5713 26.4471 39.5349 26.3159 39.4511 26.2111C39.3988 26.1457 39.3039 26.0996 39.1938 26.0661C39.0999 26.0376 39.002 26.0202 38.9222 26.006C38.9111 26.004 38.9003 26.0021 38.8899 26.0002H34.0151H33.9695V25.9546V23.9484V23.9024ZM34.0607 23.9944V25.9091H38.894H38.8981L38.9021 25.9098C38.9132 25.9118 38.9251 25.9139 38.9375 25.9161C39.0169 25.9302 39.1207 25.9486 39.2203 25.9789C39.3341 26.0135 39.452 26.0662 39.5223 26.1541C39.6209 26.2774 39.6606 26.4274 39.68 26.5578C39.6893 26.6201 39.6942 26.6793 39.6983 26.7295L39.6989 26.7367C39.7033 26.7902 39.7069 26.8296 39.7134 26.8555L39.7275 26.9122H39.6691H36.1582C35.5259 26.9122 34.9105 27.0583 34.454 27.4253C33.9993 27.7908 33.6959 28.3808 33.6959 29.2832C33.6959 30.1644 33.9331 30.8018 34.322 31.2185C34.7107 31.6349 35.2562 31.8366 35.8846 31.8366H41.5842V26.8666V26.8658L41.5842 26.865C41.5917 26.6557 41.5737 26.3038 41.4951 25.9322C41.4164 25.56 41.2778 25.1729 41.0472 24.8891C40.8148 24.603 40.5238 24.3903 40.2404 24.2491C39.9564 24.1076 39.683 24.0396 39.4867 24.0396H39.4864L34.0607 23.9944ZM35.8221 28.9904C35.7575 29.0426 35.7022 29.1318 35.7022 29.2832C35.7022 29.5796 35.9169 29.7684 36.0325 29.8304H39.6235V28.9184H36.0214C35.969 28.9184 35.8885 28.9365 35.8221 28.9904ZM35.7647 28.9195C35.8502 28.8502 35.9521 28.8273 36.0214 28.8273H39.6691H39.7147V28.8728V29.876V29.9216H39.6691H36.0214H36.0106L36.001 29.9168C35.8707 29.8516 35.611 29.6353 35.611 29.2832C35.611 29.1063 35.6772 28.9903 35.7647 28.9195Z" fill="black"/>
<path fill-rule="evenodd" clip-rule="evenodd" d="M34.0607 25.9091V23.9944L39.4864 24.0396H39.4867C39.683 24.0396 39.9564 24.1076 40.2404 24.2491C40.5238 24.3903 40.8148 24.603 41.0472 24.8891C41.2778 25.1729 41.4164 25.56 41.4951 25.9322C41.5737 26.3038 41.5917 26.6557 41.5842 26.865L41.5842 26.8658V26.8666V31.8366H35.8846C35.2562 31.8366 34.7107 31.6349 34.322 31.2185C33.9331 30.8018 33.6959 30.1644 33.6959 29.2832C33.6959 28.3808 33.9993 27.7908 34.454 27.4253C34.9105 27.0583 35.5259 26.9122 36.1582 26.9122H39.6691H39.7275L39.7134 26.8555C39.7069 26.8296 39.7033 26.7902 39.6989 26.7367L39.6983 26.7295C39.6942 26.6793 39.6893 26.6201 39.68 26.5578C39.6606 26.4274 39.6209 26.2774 39.5223 26.1541C39.452 26.0662 39.3341 26.0135 39.2203 25.9789C39.1207 25.9486 39.0169 25.9302 38.9375 25.9161C38.9251 25.9139 38.9132 25.9118 38.9021 25.9098L38.8981 25.9091H38.894H34.0607ZM35.7647 28.9195C35.8502 28.8502 35.9521 28.8273 36.0214 28.8273H39.6691H39.7147V28.8728V29.876V29.9216H39.6691H36.0214H36.0106L36.001 29.9168C35.8707 29.8516 35.611 29.6353 35.611 29.2832C35.611 29.1063 35.6772 28.9903 35.7647 28.9195Z" fill="black"/>
</svg>
